<?xml version="1.0" encoding="UTF-8"?>
<svg id="Layer_1" xmlns="http://www.w3.org/2000/svg" version="1.1" viewBox="0 0 24 24">
  <defs>
    <style>
      .st0 {
        fill: #aaaaaa;
      }
    </style>
  </defs>
  <circle class="st0" cx="12" cy="12" r="11.7652327"/>
  <g>
    <path d="M19.4139265,19.4139265l-3.204616-3.204616h-6.8098091c-.4406349,0-.8178448-.1568926-1.13163-.4706777-.3137855-.3137851-.4706781-.6909955-.4706781-1.1316303v-.801154h7.6109631c.4406341,0,.8178437-.1568926,1.1316303-.4706777s.4706777-.6909955.4706777-1.1316303v-5.6080781h.801154c.4406341,0,.8178437.1568922,1.1316303.4706781s.4706777.6909955.4706777,1.13163v11.2161561ZM6.1883815,12.7378153l.9413557-.9413561h7.871338v-5.6080781H6.1883815v6.5494342ZM4.5860735,16.603384V6.1883815c0-.4406349.1568927-.8178443.4706781-1.13163s.6909955-.4706781,1.13163-.4706781h8.8126945c.4406341,0,.8178437.1568922,1.1316303.4706781s.4706777.6909955.4706777,1.13163v5.6080785c0,.4406349-.1568926.8178452-.4706777,1.1316303s-.6909947.4706777-1.1316303.4706777h-7.2103865l-3.204616,3.204616ZM6.1883815,11.7964599v-5.6080781,5.6080781Z"/>
    <g>
      <path d="M10.6114033,11.5668323c-.1955942,0-.3724114-.0735434-.5108922-.2120242-.1380895-.1376983-.211633-.3145155-.211633-.5108922,0-.1987237.0715875-.3708467.2120242-.5112833.1380895-.1380895.3145155-.2112418.510501-.2112418.1991149,0,.3708467.0711963.5112833.2112418.1400455.1404367.211633.3125596.211633.5112833,0,.1963766-.0735434.3731938-.2120242.5112833-.1380895.1380895-.3149067.211633-.5108922.211633Z"/>
      <path d="M10.6115913,11.3395526c.1369656,0,.2537889-.0483408.3504705-.1450224s.1450224-.2135049.1450224-.3504705-.0483408-.2537889-.1450224-.3504705-.2135049-.1450224-.3504705-.1450224-.2537889.0483408-.3504705.1450224-.1450224.2135049-.1450224.3504705.0483408.2537889.1450224.3504705.2135049.1450224.3504705.1450224Z"/>
      <path d="M10.5947282,9.9755012"/>
      <path d="M10.0376093,9.8268145c-.0810998,0-.0875108-.0811044-.0859797-.1193751.0112566-.2814448.0455055-.4815255.1053604-.6203508.0754994-.1768172.2581844-.3857118.5742647-.6568055.0915381-.0923205.1807291-.1944207.2554461-.2949561.0512457-.0692404.0758906-.1455221.0758906-.2331483,0-.089191-.033251-.1674287-.1048385-.2472311-.0637637-.0711963-.1689934-.1056209-.3203834-.1056209-.1486516,0-.2542725.0387277-.3227305.1193125-.0915381.1075768-.1537371.215936-.184641.3215569l-.0527646.1792216-.0172581.058621-1.1098017-.435784.0704139-.205374c.109924-.3215569.3047358-.597736.578959-.8214958.2820469-.23041.630987-.3473754,1.037823-.3473754.4267866,0,.8035011.1189213,1.1199726.352852.3379868.2499694.5093274.6223809.5093274,1.1070634,0,.232366-.0590695.4533875-.1752524.6564143-.1056209.1854233-.2401897.3602846-.3994034.5191071-.334075.3344662-.4033153.4467372-.4166157.4729469-.0071537.0145626-.0254876.0609964-.0373455.1713413-.0033496.0311675.0062315.1214128-.1035908.1214128"/>
    </g>
  </g>
</svg>