<?xml version="1.0" encoding="UTF-8"?>
<svg id="Layer_1" xmlns="http://www.w3.org/2000/svg" version="1.1" viewBox="0 0 24 24">
  <path d="M21.2540594,21.2540594l-4.0000001-4.0000001h-8.5000001c-.55,0-1.0208336-.1958332-1.4125-.5875-.3916668-.3916664-.5875-.8625-.5875-1.4125v-1h9.5000001c.55,0,1.0208328-.1958336,1.4125-.5875s.5875-.8625.5875-1.4125v-7.0000001h1c.55,0,1.0208328.1958328,1.4125.5875s.5875.8625.5875,1.4125v14.0000002ZM4.7459406,12.9209407l1.175-1.175h9.8250001v-7.0000001H4.7459406v8.1750001ZM2.7459406,17.7459408V4.7459406c0-.55.1958334-1.0208328.5875-1.4125s.8625-.5875,1.4125-.5875h11.0000002c.55,0,1.0208328.1958328,1.4125.5875s.5875.8625.5875,1.4125v7.0000001c0,.55-.1958328,1.0208336-.5875,1.4125s-.8625.5875-1.4125.5875H6.7459406l-4.0000001,4.0000001ZM4.7459406,11.7459407v-7.0000001,7.0000001Z"/>
  <g>
    <path d="M10.2667544,11.4593197c-.2441406,0-.4648438-.0917969-.6376953-.2646484-.1723633-.171875-.2641602-.3925781-.2641602-.6376953,0-.2480469.0893555-.4628906.2646484-.6381836.1723633-.1723633.3925781-.2636719.637207-.2636719.2485352,0,.4628906.0888672.6381836.2636719.1748047.175293.2641602.3901367.2641602.6381836,0,.2451172-.0917969.4658203-.2646484.6381836-.1723633.1723633-.3930664.2641602-.6376953.2641602Z"/>
    <path d="M10.2669889,11.1756297c.1709605,0,.3167795-.0603389.4374574-.1810168s.1810168-.2664969.1810168-.4374574-.0603389-.3167795-.1810168-.4374574-.2664969-.1810168-.4374574-.1810168-.3167795.0603389-.4374574.1810168-.1810168.2664969-.1810168.4374574.0603389.3167795.1810168.4374574.2664969.1810168.4374574.1810168Z"/>
    <path d="M10.2459405,9.4730216"/>
    <path d="M9.5505449,9.2874304c-.1012287,0-.1092308-.1012348-.1073202-.1490039.0140506-.3512997.0567997-.6010396.1315106-.7743219.0942383-.2207031.3222656-.4814453.7167969-.8198242.1142578-.1152344.2255859-.2426758.3188477-.3681641.0639648-.0864258.0947266-.1816406.0947266-.2910156,0-.1113281-.0415039-.2089844-.1308594-.3085938-.0795898-.0888672-.2109375-.1318359-.3999023-.1318359-.1855469,0-.3173828.0483398-.402832.1489258-.1142578.1342773-.1918945.2695312-.2304688.4013672l-.0658604.2237044-.021542.0731706-1.3852539-.5439453.0878906-.2563477c.137207-.4013672.3803711-.7460938.7226562-1.0253906.3520508-.2875977.7875977-.4335938,1.2954102-.4335938.5327148,0,1.0029297.1484375,1.3979492.4404297.421875.3120117.6357422.7768555.6357422,1.3818359,0,.2900391-.0737305.565918-.21875.8193359-.1318359.2314453-.2998047.449707-.4985352.6479492-.4169922.4174805-.503418.5576172-.5200195.590332-.0089293.0181774-.0318132.076136-.046615.2138683-.0041809.0389031.0077781.1515478-.1293024.1515478"/>
  </g>
</svg>