<?xml version="1.0" encoding="UTF-8"?><svg id="Layer_1" xmlns="http://www.w3.org/2000/svg" viewBox="0 0 23.999999996767656 24"><rect width="23.999999996767656" height="24" style="fill:#212121;"/><path d="M19.41392707824707,19.41392707824707l-3.204616546630859-3.204616546630859h-6.809808731079102c-.440634727478027,0-.817844390869141-.156892776489258-1.131629943847656-.470677375793457-.313785552978516-.313785552978516-.470678329467773-.690995216369629-.470678329467773-1.131629943847656v-.801154136657715h7.610962867736816c.440633773803711,0,.817843437194824-.156892776489258,1.131630897521973-.470677375793457s.470678329467773-.690995216369629.470678329467773-1.131629943847656v-5.608078002929688h.801153182983398c.440633773803711,0,.817844390869141.1568922996521,1.131629943847656.470678329467773s.470678329467773.690995693206787.470678329467773,1.131629943847656c0,0,0,11.216156959533691,0,11.216155052185059ZM6.188381671905518,12.737814903259277l.94135570526123-.94135570526123h7.871338367462158v-5.608078002929688H6.188381671905518s0,6.549434661865234,0,6.549433708190918ZM4.586073398590088,16.603384017944336V6.188381671905518c0-.440634727478027.156892776489258-.817844390869141.470677852630615-1.131629943847656s.690995693206787-.470677852630615,1.131629943847656-.470677852630615h8.812694549560547c.440633773803711,0,.817843437194824.1568922996521,1.131629943847656.470678329467773.313785552978516.313786029815674.470678329467773.690995693206787.470678329467773,1.131629943847656v5.608078956604004c0,.440634727478027-.156892776489258.817845344543457-.470678329467773,1.131629943847656s-.690994262695312.470677375793457-1.131629943847656.470677375793457h-7.210386276245117l-3.204616069793701,3.204615592956543ZM6.188381671905518,11.796460151672363v-5.608078002929688,5.608078002929688Z" style="fill:#0af;"/><path d="M10.611403465270996,11.566832542419434c-.19559383392334,0-.372411727905273-.073543548583984-.510891914367676-.212023735046387-.138089179992676-.137698173522949-.21163272857666-.314515113830566-.21163272857666-.510891914367676,0-.198723793029785.071587562561035-.370846748352051.212023735046387-.511282920837402.138089179992676-.138089179992676.314515113830566-.211241722106934.510500907897949-.211241722106934.199114799499512,0,.370846748352051.071196556091309.511282920837402.211241722106934.140045166015625.140437126159668.21163272857666.312559127807617.21163272857666.511282920837402,0,.196376800537109-.073543548583984.373193740844727-.212023735046387.511282920837402-.138089179992676.138089179992676-.314907073974609.21163272857666-.510891914367676.21163272857666Z" style="fill:#0af;"/><path d="M10.611591339111328,11.339552879333496c.136965751647949,0,.253788948059082-.048340797424316.350470542907715-.145022392272949s.145022392272949-.213504791259766.145022392272949-.350470542907715-.048340797424316-.253788948059082-.145022392272949-.350470542907715-.213504791259766-.145022392272949-.350470542907715-.145022392272949-.253788948059082.048340797424316-.350470542907715.145022392272949-.145022392272949.213504791259766-.145022392272949.350470542907715.048340797424316.253788948059082.145022392272949.350470542907715.213504791259766.145022392272949.350470542907715.145022392272949Z" style="fill:#0af;"/><path d="M10.037609100341797,9.826814651489258c-.081099510192871,0-.08751106262207-.081104278564453-.085979461669922-.119375228881836.011256217956543-.281444549560547.045505523681641-.481525421142578.10536003112793-.62035083770752.075499534606934-.176816940307617.258184432983398-.385711669921875.574264526367188-.656805992126465.091538429260254-.092320442199707.180728912353516-.19442081451416.255446434020996-.294956207275391.05124568939209-.069240570068359.07589054107666-.145522117614746.07589054107666-.233148097991943,0-.08919095993042-.03325080871582-.167428493499756-.104838371276855-.247231006622314-.063763618469238-.07119607925415-.16899299621582-.105620861053467-.320383071899414-.105620861053467-.148652076721191,0-.2542724609375.038727760314941-.32273006439209.119312286376953-.091538429260254.107576847076416-.15373706817627.215936183929443-.184640884399414.32155704498291l-.052764892578125.179221630096436-.017257690429688.058621406555176-1.109801292419434-.435783863067627.070413589477539-.205374240875244c.10992431640625-.32155704498291.304736137390137-.59773588180542.578959465026855-.82149600982666.282047271728516-.230410099029541.630987167358398-.347375392913818,1.037822723388672-.347375392913818.426786422729492,0,.803501129150391.118921279907227,1.119972229003906.352851867675781.337986946105957.249969482421875.509326934814453.62238073348999.509326934814453,1.107063293457031,0,.23236608505249-.059069633483887.45338773727417-.175251960754395.65641450881958-.105621337890625.185422897338867-.240189552307129.360284805297852-.39940357208252.519106864929199-.334074974060059.334465980529785-.403315544128418.446737289428711-.41661548614502.472947120666504-.007153511047363.014562606811523-.025487899780273.060996055603027-.037345886230469.171340942382812-.003349304199219.031167030334473.006231307983398.121413230895996-.103590965270996.121413230895996" style="fill:#0af;"/></svg>